<svg xmlns="http://www.w3.org/2000/svg" viewBox="0 0 800 450" style="width:100%;height:auto;display:block;">
  <rect width="800" height="450" fill="#1b2838"/>
  <circle cx="0"   cy="0"   r="340" fill="#111a24" opacity="0.6"/>
  <circle cx="800" cy="450" r="340" fill="#111a24" opacity="0.6"/>
  <path d="M272 218 Q272 100 400 100 Q528 100 528 218" fill="none" stroke="#ecf0f1" stroke-width="44" stroke-linecap="round"/>
  <path d="M304 218 Q304 142 400 142 Q496 142 496 218" fill="none" stroke="#1b2838" stroke-width="18" stroke-linecap="round"/>
  <rect x="228" y="210" width="344" height="230" rx="28" fill="#ecf0f1"/>
  <polyline points="396,210 422,272 385,308 418,370 398,440" fill="none" stroke="#e74c3c" stroke-width="14" stroke-linejoin="round" stroke-linecap="round"/>
  <ellipse cx="418" cy="374" rx="13" ry="13" fill="#e74c3c"/>
  <ellipse cx="400" cy="408" rx="9"  ry="9"  fill="#e74c3c" opacity="0.75"/>
  <ellipse cx="412" cy="434" rx="6"  ry="6"  fill="#e74c3c" opacity="0.5"/>
  <circle cx="400" cy="296" r="32" fill="#2c3e50"/>
  <rect   x="386" y="318" width="28" height="40" rx="7" fill="#2c3e50"/>
  <rect x="64"  y="358" width="38" height="58"  rx="6" fill="#27ae60"/>
  <rect x="114" y="328" width="38" height="88"  rx="6" fill="#f39c12"/>
  <rect x="164" y="288" width="38" height="128" rx="6" fill="#e74c3c"/>
  <polygon points="660,50 740,190 580,190" fill="#e74c3c"/>
  <rect x="654" y="100" width="12" height="56" rx="4" fill="#1b2838"/>
  <circle cx="660" cy="175" r="8" fill="#1b2838"/>
</svg>